<svg xmlns="http://www.w3.org/2000/svg" width="16" height="17" fill="none" viewBox="0 0 16 17">
    <path fill="#FF6000" d="M14.851 0h-8.89c-.634 0-1.15.515-1.15 1.15v2.696h1.05V1.15c0-.055.044-.1.1-.1h8.89c.055 0 .1.045.1.1v8.89c0 .056-.045.1-.1.1h-2.613v1.05h2.613c.634 0 1.15-.516 1.15-1.15V1.15C16 .515 15.484 0 14.85 0z"/>
    <path fill="#FF6000" d="M10.04 4.895H1.15C.514 4.895 0 5.41 0 6.044v8.89c0 .634.515 1.15 1.15 1.15h8.89c.633 0 1.149-.516 1.149-1.15v-8.89c0-.634-.516-1.15-1.15-1.15zm0 10.14H1.15c-.056 0-.101-.045-.101-.1V6.043c0-.056.045-.1.1-.1h8.89c.056 0 .101.044.101.1v8.89c0 .056-.045.1-.1.1z"/>
</svg>
