<svg xmlns="http://www.w3.org/2000/svg" width="75" height="90" fill="none" viewBox="0 0 75 90">
    <g clip-path="url(#clip0)">
        <path fill="#CBCBCB" d="M74.992 31.159l-.005-.095c-.004-.09-.008-.175-.021-.261-.026-.214-.06-.463-.128-.699-.462-1.898-2.071-3.39-3.992-3.716-.222-.043-.458-.068-.723-.077l-.265-.008-2.824-.043c-.775-.013-1.549-.017-2.328-.022-.385 0-3.906-.017-3.906-.017 1.211-.733 2.388-1.577 3.504-2.516 1.314-1.097 2.546-2.4 3.765-3.973.62-.797 1.164-1.628 1.57-2.271.522-.887.937-1.667 1.305-2.456.942-2.087 1.34-4.033 1.215-5.945-.15-2.177-1.142-4.32-2.72-5.88-.685-.694-1.58-1.316-2.649-1.843-.898-.441-1.874-.78-2.896-1.003C62.854.111 61.754 0 60.616 0c-.808 0-1.66.056-2.528.171-1.823.249-3.637.712-5.4 1.376-1.634.613-3.29 1.449-4.924 2.473-1.485.922-2.935 2.07-4.304 3.407-1.284 1.243-2.46 2.645-3.5 4.17-1.142 1.668-1.998 3.237-2.614 4.8-.402 1.055-.714 2.122-.932 3.19-.043-.168-.09-.33-.133-.489-.933-3.111-2.143-5.773-3.697-8.143-.902-1.393-1.84-2.576-2.858-3.605-1.116-1.153-2.335-2.155-3.628-2.987-2.622-1.693-5.728-2.691-8.988-2.897-.347-.017-.694-.026-1.04-.026-1.262 0-2.512.12-3.714.36-1.771.364-3.277.922-4.603 1.702-1.626.964-2.914 2.245-3.723 3.711-1.04 1.835-1.176 3.793-1.108 5.113.206 3.97 2.118 6.918 3.688 8.696 2.135 2.388 4.925 4 7.86 4.54.047.008.094.012.14.012.322 0 .609-.193.732-.489.167-.402-.025-.87-.44-1.045-2.494-1.037-4.578-2.709-6.028-4.835-.779-1.114-1.348-2.246-1.699-3.36-.162-.531-.338-1.157-.445-1.796-.103-.643-.145-1.238-.128-1.778.021-.635.098-1.175.24-1.66.15-.56.346-1.02.598-1.413.505-.819 1.318-1.54 2.35-2.092 1-.531 2.134-.913 3.375-1.131.903-.168 1.84-.253 2.79-.253.303 0 .607.008.91.025 2.512.146 4.96.888 7.073 2.14 1.972 1.135 3.816 2.828 5.634 5.185.878 1.132 1.626 2.387 2.182 3.352.625 1.084 1.211 2.28 1.793 3.647.826 1.907 1.498 3.96 2.05 6.266l-1.451.021c-1.75.026-3.56.052-5.34.099-10.867.227-19.701.57-27.805 1.084-.397.026-.714.343-.74.742-.025.437.304.814.74.844 8.104.51 16.938.857 27.806 1.084 1.788.052 3.606.078 5.369.099l.702.009c-.005.964-.005 1.928-.005 2.893v2.005l.069 6.198c.034 2.858.098 5.7.184 9.06l-.518-.03-4.034-.171c-.878-.035-1.75-.056-2.627-.077-.471-.013-.942-.022-1.408-.035l-.235-.004c-1.245-.034-2.533-.069-3.8-.077-1.523-.022-3.14-.034-4.941-.034-1.044 0-2.088.004-3.132.008l-4.034.052-5.742.145h-.068c-.231 0-.48-.102-.693-.278-.21-.18-.356-.437-.42-.742-.017-.064-.025-.36-.03-.557l-.008-.227-.043-1.007c-.167-4.436-.42-10.278-.877-16.167-.03-.394-.338-.698-.727-.728-.022 0-.043-.005-.065-.005-.41 0-.757.322-.791.733-.458 5.88-.71 11.73-.877 16.167l-.043 1.016c0 .094-.004.18-.008.265-.009.245-.022.502.004.935.09 1.067.535 2.087 1.258 2.876.757.822 1.758 1.367 2.81 1.525.137.026.279.039.416.052.136.013.29.017.355.017l1.54.038c-.402 6.318-.685 13-.903 21.614l-.038 1.556c-.039 1.427-.077 2.906-.094 4.355l-.048 3.017v.15l.009.287c.004.159.026.313.047.463l.021.154c.082.425.202.815.36 1.166.342.763.856 1.427 1.489 1.924.663.528 1.437.879 2.237 1.02.244.043.441.069.62.073l.283.013 3.872.034 5.9.026h1.12c3.39 0 6.88-.017 10.675-.056l5.896-.098c2.362-.034 4.184-.073 5.9-.124 9.275-.232 16.771-.57 23.6-1.068.389-.03.705-.343.731-.733.03-.437-.295-.818-.732-.848-6.836-.497-14.336-.836-23.6-1.067-1.715-.052-3.537-.095-5.899-.125l-5.9-.098c-3.782-.06-7.273-.082-10.662-.082h-1.12l-5.9.026-3.988.034c-.021 0-.043-.004-.09-.008-.137-.013-.282-.073-.428-.176-.12-.081-.23-.21-.316-.377-.039-.073-.064-.154-.077-.197 0-.034-.009-.069-.017-.103l-.017-.142-.047-3.094c-.018-1.453-.056-2.932-.095-4.363L9.14 75.77c-.214-8.474-.5-15.335-.899-21.567l2.157.056 4.034.051c1.031.004 2.067.009 3.098.009 1.81 0 3.435-.013 4.971-.035 1.267-.008 2.559-.042 3.804-.077l.235-.004 1.438-.039c.864-.021 1.728-.042 2.597-.077l4.034-.175.603-.035c.129 4.033.261 8.203.454 12.327l.29 6.197c.044.712.082 1.419.125 2.13.077 1.333.154 2.713.252 4.067.026.343.3.622.646.648h.052c.363 0 .667-.283.693-.648.098-1.354.175-2.734.252-4.067.039-.711.081-1.418.124-2.134l.291-6.198c.193-4.144.325-8.34.454-12.395l.004-.141c2.794-.197 5.327-.386 7.877-.694.363-.043.65-.33.693-.695.05-.437-.257-.835-.694-.887-2.545-.308-5.044-.497-7.799-.69.073-2.807.154-6.056.188-9.283l.069-6.198v-2.01c0-.943 0-1.886-.005-2.833l3.543.047c1.639.005 3.281.013 4.92.022 2.11.013 4.214.026 6.324.026.885 0 1.766 0 2.652-.009l13.567-.09c.38.047.731.356.847.759.008.025.013.055.021.085l.013.078c0 .02 0 .047.009.085 0 .017.004.039.004.095l.03 2.61.128 6.96c.017.75.03 1.5.043 2.246.03 1.573.056 3.146.103 4.714l.03 1.08v.146c0 .026-.005.056-.009.094-.004.039-.008.073-.008.086-.047.274-.172.532-.356.737-.196.214-.444.369-.731.442-.06.012-.124.03-.188.034l-.112.013-1.078.038-.667.026c-4.339.176-8.827.36-13.237.66-.394.026-.71.343-.736.737-.03.438.3.819.736.849 3.328.227 6.7.386 9.579.51-.03 2.439-.009 4.873.051 7.239.06 2.627.167 5.224.274 7.637.227 4.54.535 9.905 1.12 15.275.035.322.296.583.617.622.026.004.051.004.077.004.355 0 .655-.266.693-.621.586-5.366.894-10.732 1.121-15.275.107-2.405.214-4.993.274-7.634.06-2.284.081-4.658.051-7.059l1.147.04.312-.01c.193-.008.398-.034.65-.085.847-.172 1.66-.609 2.29-1.226.624-.617 1.073-1.427 1.274-2.293l.022-.116c.034-.175.068-.355.072-.535l.018-.318.03-1.088c.047-1.577.076-3.155.102-4.732l.171-9.193.03-2.606c0-.064-.004-.197-.008-.321zM62.05 21.237c-1.143 1.144-2.392 2.173-3.714 3.064-.984.677-2.062 1.316-3.209 1.903h-1.236c-2.118 0-4.232.013-6.345.026-1.609.008-3.217.017-4.83.021l-4.75.064c-.038-3.025.664-6.038 2.033-8.726.676-1.337 1.54-2.64 2.64-3.977 1.232-1.5 2.254-2.567 3.311-3.463 2.516-2.147 5.258-3.729 8.146-4.706 1.652-.553 3.132-.896 4.527-1.05.659-.077 1.296-.116 1.9-.116.89 0 1.72.086 2.476.258.698.15 1.348.368 1.93.651.684.339 1.164.66 1.553 1.05.877.831 1.433 1.963 1.566 3.193.128 1.183-.116 2.567-.715 4.012-.637 1.491-1.394 2.884-2.242 4.14-.868 1.273-1.886 2.507-3.041 3.656z"/>
    </g>
    <defs>
        <clipPath id="clip0">
            <path fill="#fff" d="M0 0H75V90H0z"/>
        </clipPath>
    </defs>
</svg>
