<svg xmlns="http://www.w3.org/2000/svg" width="70" height="70" fill="none" viewBox="0 0 70 70">
    <circle cx="35" cy="35" r="34" stroke="#FF6000" stroke-linecap="round" stroke-linejoin="round" stroke-width="2"/>
    <path fill="#FF6000" d="M36.635 46.694c0 1.014-.822 1.836-1.835 1.836-1.014 0-1.835-.822-1.835-1.836 0-1.013.821-1.835 1.835-1.835s1.835.822 1.835 1.835zM34.8 40.73c-.76 0-1.377-.617-1.377-1.377v-1.854c0-1.747 1.11-3.313 2.757-3.894 2.193-.773 3.667-3.11 3.667-4.805 0-2.784-2.263-5.047-5.047-5.047s-5.047 2.263-5.047 5.047c0 .76-.617 1.376-1.377 1.376S27 29.56 27 28.8c0-4.3 3.498-7.8 7.8-7.8s7.8 3.5 7.8 7.8c0 3.061-2.417 6.312-5.504 7.402-.55.192-.92.715-.92 1.299v1.852c0 .76-.616 1.376-1.376 1.376z"/>
</svg>
