<svg xmlns="http://www.w3.org/2000/svg" width="12" height="17" fill="none" viewBox="0 0 12 17">
    <path fill="#999" d="M11.065 6.712h-.652v-2.3C10.412 1.98 8.432 0 6 0 3.567 0 1.588 1.98 1.588 4.412v2.3H.935c-.516 0-.935.418-.935.934v7.624c0 .517.418.935.935.935h10.13c.517 0 .935-.418.935-.935V7.646c0-.516-.418-.934-.935-.934zm-4.07 6.695h-1.99l.356-1.697c-.333-.212-.555-.582-.555-1.006 0-.66.535-1.194 1.194-1.194.66 0 1.194.535 1.194 1.194 0 .424-.222.794-.555 1.006l.356 1.697zm1.843-6.695H3.162v-2.3c0-1.565 1.273-2.838 2.838-2.838 1.565 0 2.838 1.273 2.838 2.838v2.3z"/>
</svg>
