<svg xmlns="http://www.w3.org/2000/svg" width="24" height="24" fill="none" viewBox="0 0 24 24">
    <circle cx="12" cy="12" r="12" fill="#FF6000"/>
    <path fill="#fff" d="M11.912 4.412l-1.7 1.313v2.083L8.755 6.351l-2.146.257-.274 2.131 1.473 1.474h-2.06l-1.336 1.7 1.313 1.699h2.083l-1.457 1.457.258 2.146 2.13.274 1.473-1.473v2.06l1.7 1.336 1.7-1.313v-2.083l1.457 1.457 2.146-.258.275-2.13-1.474-1.473h2.06l1.336-1.7-1.313-1.7h-2.083l1.457-1.457-.258-2.147-2.13-.273-1.473 1.474V5.747l-1.7-1.335z"/>
</svg>
