<svg xmlns="http://www.w3.org/2000/svg" width="43" height="27" fill="none" viewBox="0 0 43 27">
    <rect width="42" height="26" x=".5" y=".5" fill="#fff" stroke="#E6E6E6" rx="7.5"/>
    <path fill="#FF5F00" d="M17.203 7.784H24.913V20.192H17.203z"/>
    <path fill="#EB001B" d="M17.997 13.989c-.002-2.42 1.126-4.708 3.058-6.203-3.283-2.542-7.998-2.172-10.831.851-2.833 3.023-2.833 7.683 0 10.706 2.833 3.023 7.548 3.393 10.831.851-1.933-1.495-3.06-3.783-3.058-6.205z"/>
    <path fill="#F79E1B" fill-rule="evenodd" d="M33.4 18.712v.678h-.097v-.678h-.209v-.14h.53v.14H33.4zm1.028-.14v.818h-.111v-.62l-.174.533h-.12l-.173-.532v.62h-.116v-.819h.16l.187.585.187-.585h.16z" clip-rule="evenodd"/>
    <path fill="#F79E1B" d="M34.013 13.989c0 3.021-1.75 5.777-4.508 7.097-2.758 1.32-6.039.973-8.45-.894 1.933-1.496 3.06-3.783 3.06-6.204s-1.127-4.708-3.06-6.204c2.411-1.867 5.692-2.214 8.45-.894 2.757 1.32 4.508 4.076 4.508 7.097v.002z"/>
</svg>
