<svg xmlns="http://www.w3.org/2000/svg" width="69" height="20" fill="none" viewBox="0 0 69 20">
    <path fill="#DE4E2D" fill-rule="evenodd" d="M53.019 2.607l-.44-.59h-.697l.488-.508-.086-.746-.713-.095-.493.513V.464L50.509 0l-.569.456v.724l-.487-.506-.718.09-.092.74.493.512h-.69L48 2.607l.44.59h.696l-.487.508.086.745.713.096.492-.512v.716l.57.464.568-.456v-.724l.487.506.719-.09.091-.74-.493-.512h.69l.447-.591z" clip-rule="evenodd"/>
    <path fill="#1A1919" fill-rule="evenodd" d="M9.15 6.795c-1.107 0-2.097.524-2.755 1.346-.657-.822-1.647-1.346-2.754-1.346-1.974 0-3.58 1.668-3.58 3.72v9.442h1.653v-9.443c0-1.104.864-2.003 1.927-2.003 1.063 0 1.928.899 1.928 2.003v9.443h1.653v-9.443c0-1.104.864-2.003 1.927-2.003 1.063 0 1.928.899 1.928 2.003v9.443h1.652v-9.443c0-2.05-1.605-3.72-3.58-3.72zM19.89 16.237c0 1.105-.865 2.003-1.928 2.003s-1.928-.898-1.928-2.003v-5.722c0-1.105.865-2.004 1.928-2.004s1.928.9 1.928 2.004v5.722zm-1.928-9.442c-1.974 0-3.58 1.668-3.58 3.72v5.722c0 2.051 1.606 3.72 3.58 3.72s3.58-1.669 3.58-3.72v-5.722c0-2.052-1.606-3.72-3.58-3.72zM37.516 16.237c0 1.105-.865 2.003-1.928 2.003s-1.928-.898-1.928-2.003c0-.863.59-1.243 2.039-1.964l.249-.124.003-.002.002-.001.28-.142c.417-.21.865-.437 1.283-.713v2.946zm-1.928-9.442c-1.951 0-3.542 1.63-3.578 3.649h-.002v.929h1.652v-.858c0-1.105.865-2.004 1.928-2.004s1.928.9 1.928 2.004c0 .844-.61 1.24-2.005 1.944l-.282.144-.245.122c-1.395.694-2.976 1.482-2.976 3.512 0 2.051 1.606 3.72 3.58 3.72s3.58-1.669 3.58-3.72v-5.722c0-2.052-1.606-3.72-3.58-3.72zM44.4 6.795c-1.973 0-3.58 1.668-3.58 3.72v9.442h1.653v-9.443c0-1.104.865-2.003 1.928-2.003s1.928.899 1.928 2.003v9.443h1.652v-9.443c0-2.05-1.606-3.72-3.58-3.72zM56.519 6.795c-1.974 0-3.58 1.668-3.58 3.72 0 2.007 1.627 2.828 2.934 3.489l.28.142.003.001.003.001.25.125c1.447.721 2.038 1.1 2.038 1.964 0 1.104-.866 2.003-1.928 2.003-1.063 0-1.928-.899-1.928-2.003V15.3h-1.653v.937c0 2.051 1.606 3.72 3.58 3.72s3.58-1.669 3.58-3.72c0-2.03-1.58-2.817-2.976-3.512l-.244-.122-.282-.143c-1.394-.704-2.005-1.101-2.005-1.946 0-1.104.864-2.003 1.928-2.003 1.063 0 1.928.899 1.928 2.003v.859h1.652v-.93h-.002c-.037-2.018-1.627-3.648-3.578-3.648zM67.259 16.237c0 1.105-.865 2.003-1.928 2.003s-1.928-.898-1.928-2.003c0-.863.59-1.243 2.039-1.964l.249-.124.002-.002.003-.001.28-.142c.417-.21.865-.437 1.283-.713v2.946zm-1.928-9.442c-1.951 0-3.542 1.63-3.578 3.649h-.002v.929h1.653v-.858c0-1.105.864-2.004 1.927-2.004 1.063 0 1.928.9 1.928 2.004 0 .844-.61 1.24-2.005 1.944l-.282.144-.244.122c-1.395.694-2.977 1.482-2.977 3.512 0 2.051 1.606 3.72 3.58 3.72s3.58-1.669 3.58-3.72v-5.722c0-2.052-1.606-3.72-3.58-3.72zM49.633 6.795v13.162h1.653V6.794h-1.653zM28.703 13.376v2.861c0 1.105-.865 2.003-1.928 2.003s-1.928-.898-1.928-2.003v-5.723c0-1.104.865-2.003 1.928-2.003s1.928.899 1.928 2.003v2.862zm0-10.015v4.021c-.557-.371-1.219-.587-1.928-.587-1.974 0-3.58 1.668-3.58 3.72v5.722c0 2.051 1.606 3.72 3.58 3.72s3.58-1.669 3.58-3.72V3.361h-1.652z" clip-rule="evenodd"/>
</svg>
