<svg xmlns="http://www.w3.org/2000/svg" width="26" height="26" fill="none" viewBox="0 0 26 26">
    <circle cx="13" cy="13" r="13" fill="#fff"/>
    <path fill="#fff" stroke="#000" stroke-width="2" d="M12.762 18.41l.456.233.455-.233c.365-.187 1.722-.914 3.001-2.037 1.242-1.09 2.636-2.751 2.636-4.82 0-1.823-1.321-3.616-3.393-3.616h-.002c-.83.002-1.575.467-2.087.89-.217.179-.423.375-.61.578-.187-.202-.392-.4-.609-.578-.511-.423-1.256-.888-2.086-.89h-.002c-2.07 0-3.396 1.791-3.396 3.616 0 2.069 1.394 3.73 2.636 4.82 1.28 1.123 2.636 1.85 3 2.037z"/>
</svg>
