<svg xmlns="http://www.w3.org/2000/svg" width="43" height="27" fill="none" viewBox="0 0 43 27">
    <rect width="42" height="26" x=".5" y=".5" fill="#fff" stroke="#E6E6E6" rx="7.5"/>
    <path fill="#001585" fill-rule="evenodd" d="M26.976 10.325C26.56 10.17 25.907 10 25.094 10c-2.076 0-3.537 1.052-3.549 2.558-.013 1.114 1.043 1.735 1.839 2.105.818.38 1.093.623 1.09.962-.006.52-.653.757-1.257.757-.84 0-1.287-.117-1.978-.407l-.27-.123-.294 1.735c.49.216 1.398.403 2.34.413 2.206 0 3.64-1.039 3.656-2.647.008-.884-.552-1.553-1.764-2.106-.733-.36-1.184-.597-1.178-.961 0-.322.38-.667 1.202-.667.687-.01 1.184.14 1.572.298l.188.088.285-1.68zm-9.714 7.56l1.313-7.75h2.1l-1.314 7.75h-2.1zM30.678 10h1.623L34 17.745h-1.949s-.192-.89-.255-1.161l-1.476-.002h-.004l-1.21-.002c-.081.21-.441 1.165-.441 1.165H26.46l3.118-7.102c.22-.506.597-.643 1.1-.643zm-.906 5.137c.174-.445.837-2.166.837-2.166-.006.01.032-.09.085-.227.06-.155.138-.359.194-.512l.141.668s.403 1.85.486 2.237h-1.743zm-16.328.288l2.055-5.283h2.225l-3.307 7.735-2.221.002-1.88-6.779c1.333.673 2.525 2.014 2.908 3.251l.22 1.074z" clip-rule="evenodd"/>
    <path fill="#F79510" fill-rule="evenodd" d="M11.501 10H8.03L8 10.168c2.702.67 4.49 2.288 5.232 4.232l-.755-3.717c-.13-.513-.508-.665-.976-.683z" clip-rule="evenodd"/>
</svg>
